<svg width="22" height="22" viewBox="0 0 22 22" fill="none" xmlns="http://www.w3.org/2000/svg">
<path d="M11.1058 11.5305L20.9758 1.65046C21.1396 1.45916 21.2252 1.21308 21.2155 0.961403C21.2058 0.709727 21.1015 0.470988 20.9234 0.292894C20.7453 0.114799 20.5065 0.0104669 20.2549 0.000745782C20.0032 -0.00897537 19.7571 0.0766307 19.5658 0.240457L10.5058 9.30046L1.7058 0.500457C1.51844 0.314206 1.26498 0.209664 1.0008 0.209664C0.736612 0.209664 0.483161 0.314206 0.295798 0.500457C0.20207 0.59342 0.127676 0.704021 0.0769072 0.825881C0.0261385 0.94774 0 1.07844 0 1.21046C0 1.34247 0.0261385 1.47317 0.0769072 1.59503C0.127676 1.71689 0.20207 1.82749 0.295798 1.92046L9.9058 11.5305C10.0651 11.6892 10.2809 11.7784 10.5058 11.7784C10.7307 11.7784 10.9465 11.6892 11.1058 11.5305Z" fill="#231F20"/>
<path d="M11.1058 21.1104L20.9758 11.2304C21.1396 11.0391 21.2252 10.793 21.2155 10.5414C21.2058 10.2897 21.1015 10.0509 20.9234 9.87285C20.7453 9.69476 20.5065 9.59042 20.2549 9.5807C20.0032 9.57098 19.7571 9.65659 19.5658 9.82041L10.5058 18.8804L1.7058 10.0804C1.51844 9.89416 1.26498 9.78962 1.0008 9.78962C0.736612 9.78962 0.48316 9.89416 0.295797 10.0804C0.109546 10.2678 0.00500488 10.5212 0.00500488 10.7854C0.00500488 11.0496 0.109546 11.3031 0.295797 11.4904L9.9058 21.1104C10.0651 21.2692 10.2809 21.3583 10.5058 21.3583C10.7307 21.3583 10.9465 21.2692 11.1058 21.1104Z" fill="#231F20"/>
</svg>
