<svg width="224" height="40" viewBox="0 0 224 40" fill="none" xmlns="http://www.w3.org/2000/svg">
<path fill-rule="evenodd" clip-rule="evenodd" d="M5.58028 6.36091C7.15197 5.60135 9.59371 4.73398 12.4126 4.73398C21.2934 4.73398 28.7956 12.2448 31.4374 18.8786C32.1868 18.0456 33.6072 15.4976 33.6072 11.5196C33.6072 5.83147 28.2823 0.526367 19.4594 0.526367C13.8823 0.526367 8.99293 2.89087 5.58028 6.36091ZM4.20654 27.0868C4.20654 29.9018 5.07338 32.3457 5.83347 33.9174C2.36396 30.5053 0 25.6143 0 20.0394C0 11.2138 5.30564 5.89048 10.9932 5.89048C14.9702 5.89048 17.5187 7.30982 18.3538 8.06026C11.7184 10.7015 4.20654 18.2022 4.20654 27.0868ZM26.5582 35.2896C29.3766 35.2896 31.8188 34.4243 33.39 33.6626C29.9773 37.13 25.0879 39.4956 19.5103 39.4956C10.688 39.4956 5.36411 34.1921 5.36411 28.5018C5.36411 24.5275 6.78345 21.9774 7.53282 21.1439C10.173 27.7771 17.6774 35.2896 26.5582 35.2896ZM27.9765 34.1331C33.6657 34.1331 38.9713 28.8092 38.9713 19.9863C38.9713 14.4087 36.6058 9.52144 33.1352 6.10558C33.8974 7.67619 34.7637 10.1201 34.7637 12.9378C34.7637 21.8203 27.2513 29.322 20.617 31.9649C21.4522 32.7126 23.9996 34.1331 27.9765 34.1331ZM222.45 31.4184L221.492 33.9218H221.477L220.508 31.4184H219.795V34.676H220.237V31.9553H220.248L221.32 34.676H221.617L222.693 31.9553H222.704V34.676H223.158V31.4184H222.45ZM217.768 34.6768H218.222V31.8214H219.271V31.4191H216.723V31.8214H217.768V34.6768ZM200.019 12.7777C200.019 10.4577 202.221 9.46534 204.678 9.46534C207.753 9.46534 210.176 10.4189 210.902 10.7042C210.953 10.7245 210.996 10.7414 211.03 10.7543V5.85153L210.976 5.83461C210.446 5.66982 208.2 4.97075 204.177 4.97075C197.767 4.97075 194.323 8.75459 194.323 13.07C194.323 17.3747 197.817 19.5939 200.726 21.1425L201.532 21.5716C201.98 21.8104 202.437 22.0536 202.828 22.262C205.238 23.5445 207.009 24.553 207.009 26.7823C207.009 29.3179 204.56 30.5189 202.114 30.5189C198.128 30.5189 195.638 29.1307 195.042 28.7981C195.013 28.7819 194.988 28.7683 194.968 28.7574L193.553 33.0921C193.968 33.3399 197.299 35.0409 202.212 35.0409C208.22 35.0409 212.707 31.5204 212.707 26.314C212.707 22.6181 210.193 20.2762 206.058 18.0758C205.601 17.8327 205.215 17.6269 204.821 17.4168L204.813 17.4127L204.106 17.0357C201.805 15.8105 200.019 14.845 200.019 12.7777ZM168.244 5.34602H177.079C185.174 5.34602 187.701 10.37 187.701 14.2875C187.701 19.7808 183.542 21.8825 182.342 22.3309V22.5171C182.916 22.6828 184.145 23.2616 185.737 26.1218L190.587 34.6754H184.583L180.394 27.2643C178.708 24.2347 178.024 23.2541 175.326 23.2541H173.454V34.6754H168.244V5.34602ZM176.942 18.8877C181.428 18.8877 182.354 16.0834 182.354 14.2563C182.354 12.6965 181.55 9.71187 176.942 9.71187H173.454V18.8877H176.942ZM142.617 5.34597V34.6753H160.715V30.3154H147.956V21.9023H159.201V17.5407H147.956V9.70753H159.248L160.67 5.34597H142.617ZM124.412 23.0845L125.795 18.8485H134.163H134.165V32.6857C131.545 34.0203 128.247 35.0459 124.232 35.0459C114.802 35.0459 109.759 28.8552 109.759 20.4346C109.759 11.5259 115.458 4.97794 124.418 4.97794C127.554 4.97794 130.616 5.75251 132.922 6.95515L131.457 11.4578C129.495 10.2251 127.138 9.47735 124.812 9.47735C118.469 9.47735 115.347 13.8421 115.347 20.0758C115.347 26.4038 118.426 30.5476 124.626 30.5476C126.545 30.5476 127.747 30.1893 128.882 29.6555V23.0845H124.412ZM90.9154 4.97788C82.402 4.97788 77.2257 11.1235 77.2257 20.0344C77.2257 29.0327 82.4465 35.0459 90.9154 35.0459C99.2963 35.0459 104.606 29.0327 104.606 20.0344C104.606 11.1697 99.4293 4.97788 90.9154 4.97788ZM90.9154 9.47676C96.3707 9.47676 99.0163 13.5288 99.0163 20.0344C99.0163 26.6709 96.1996 30.5475 90.9154 30.5475C85.5883 30.5475 82.8135 26.6709 82.8135 20.0344C82.8135 13.3529 85.5883 9.47676 90.9154 9.47676ZM52.5683 5.35412H61.4062C69.5012 5.35412 72.0277 10.3781 72.0277 14.2956C72.0277 19.7889 67.8684 21.8906 66.6684 22.339V22.5252C67.2424 22.6909 68.4702 23.2697 70.0618 26.1299L74.9125 34.6835H68.9101L64.7207 27.2724C63.0348 24.2428 62.3503 23.2622 59.6533 23.2622H57.7806V34.6835H52.5683V5.35412ZM61.2689 18.8958C65.7549 18.8958 66.6802 16.0915 66.6802 14.2644C66.6802 12.7046 65.8762 9.71997 61.2689 9.71997H57.7806V18.8958H61.2689Z" fill="#DA291C"/>
</svg>
